<svg xmlns="http://www.w3.org/2000/svg" width="512" height="512" viewBox="0 0 512 512">
  <defs>
    <linearGradient id="g" x1="0%" y1="0%" x2="100%" y2="100%">
      <stop offset="0%" stop-color="#0d9488"/>
      <stop offset="100%" stop-color="#14b8a6"/>
    </linearGradient>
  </defs>
  <rect width="512" height="512" rx="96" fill="#0f0f0f"/>
  <g transform="translate(256,256) scale(4)">
    <path d="M9 2c-.4 0-.8.3-.9.7l-1 3.4-3.4 1c-.4.1-.7.5-.7.9s.3.8.7.9l3.4 1 1 3.4c.1.4.5.7.9.7s.8-.3.9-.7l1-3.4 3.4-1c.4-.1.7-.5.7-.9s-.3-.8-.7-.9l-3.4-1-1-3.4C9.8 2.3 9.4 2 9 2z" fill="url(#g)"/>
  </g>
</svg>
